<?xml version="1.0" encoding="UTF-8" standalone="no"?>
<!-- Created with Inkscape (http://www.inkscape.org/) -->

<svg
   width="100"
   height="100"
   viewBox="0 0 26.458327 26.458327"
   version="1.1"
   id="svg813"
   xml:space="preserve"
   inkscape:version="1.2.1 (9c6d41e410, 2022-07-14)"
   sodipodi:docname="Ankkalogo.svg"
   xmlns:inkscape="http://www.inkscape.org/namespaces/inkscape"
   xmlns:sodipodi="http://sodipodi.sourceforge.net/DTD/sodipodi-0.dtd"
   xmlns="http://www.w3.org/2000/svg"
   xmlns:svg="http://www.w3.org/2000/svg"><sodipodi:namedview
     id="namedview815"
     pagecolor="#ffffff"
     bordercolor="#000000"
     borderopacity="0.25"
     inkscape:showpageshadow="2"
     inkscape:pageopacity="0.0"
     inkscape:pagecheckerboard="0"
     inkscape:deskcolor="#d1d1d1"
     inkscape:document-units="mm"
     showgrid="false"
     inkscape:zoom="5.6568543"
     inkscape:cx="42.868348"
     inkscape:cy="59.308581"
     inkscape:window-width="2560"
     inkscape:window-height="1351"
     inkscape:window-x="-9"
     inkscape:window-y="-9"
     inkscape:window-maximized="1"
     inkscape:current-layer="layer1" /><defs
     id="defs810" /><g
     inkscape:label="Layer 1"
     inkscape:groupmode="layer"
     id="layer1"><g
       id="g4567"
       inkscape:label="Ankka"
       transform="matrix(-1.8958388,0.03792304,0.03792304,1.8958388,25.973812,-1.4630031)"><path
         style="fill:#ff7f2a;stroke:none;stroke-width:0.7;stroke-linecap:round;stroke-linejoin:round"
         d="m 4.4371638,5.8245122 c 0,0 -0.418055,-0.2259848 -0.6265594,-0.2405114 -0.351256,-0.024472 -1.351734,-0.061209 -0.378471,-0.5112105 -0.2558139,-0.2718025 -1.1836816,-1.2273587 0.221496,-0.804907 0.1319556,0.039671 0.2519112,0.021334 0.4584127,0.013066 0.2875604,-0.011513 0.3470461,1.5654881 0.3251217,1.5435629 z"
         id="path1193"
         sodipodi:nodetypes="cscssc"
         inkscape:label="Nokka" /><path
         style="fill:#4da87d;fill-opacity:1;stroke:none;stroke-width:0.7;stroke-linecap:round;stroke-linejoin:round"
         d="m 11.400658,6.1355795 c 0,0 0.621802,4.5108885 -3.809949,4.5334995 -4.4317506,0.02261 -4.1830299,-2.7472328 -4.1830299,-2.7472328 0,0 0.011306,-1.1870759 1.1418541,-1.6619064 C 4.5156168,6.0451354 3.4642065,4.6545609 4.5947552,3.3657352 5.7253039,2.0769099 7.6811528,2.8795994 7.83943,4.2249524 7.997706,5.5703052 7.2628498,6.0790521 7.2628498,6.0790521 c 0,0 1.1983822,1.6166845 4.1378082,0.056527 z"
         id="path1041"
         sodipodi:nodetypes="csccsscc"
         inkscape:label="Vartalo" /><g
         id="g1255"
         transform="translate(2.1869466,1.5048177)"
         style="display:inline"
         inkscape:label="Silmä"><circle
           style="fill:#ffffff;stroke:none;stroke-width:0.7;stroke-linecap:round;stroke-linejoin:round"
           id="path1247"
           cx="3.4602537"
           cy="2.7946615"
           r="0.53330076" /><circle
           style="fill:#000000;stroke:none;stroke-width:0.511089;stroke-linecap:round;stroke-linejoin:round"
           id="circle1249"
           cx="3.4602537"
           cy="2.7946615"
           r="0.38937688" /><circle
           style="fill:#ffffff;stroke:none;stroke-width:0.154651;stroke-linecap:round;stroke-linejoin:round"
           id="circle1251"
           cx="3.3610353"
           cy="2.645833"
           r="0.11782223" /></g><path
         style="fill:#3d8664;fill-opacity:1;stroke:none;stroke-width:0.7;stroke-linecap:round;stroke-linejoin:round"
         d="m 10.396003,7.2204361 c 0,0 0.197529,2.0328097 -1.6369382,2.4365091 C 7.1295915,10.015533 6.411746,9.1336567 6.3786125,8.4719733 6.3469141,7.8389495 6.8316888,7.1123843 8.0543377,7.3726186 9.3445502,7.6472335 9.9044475,7.4768288 10.396004,7.220438 Z"
         id="path1313"
         sodipodi:nodetypes="cssssc"
         inkscape:label="Siipi" /></g><g
       id="g5383"
       inkscape:label="Nuolet"
       transform="matrix(3.5359654,2.0366943,-2.0366943,3.5359654,4.6217315,-23.045811)"><path
         style="fill:#8fde94;fill-opacity:1;stroke:none;stroke-width:0.492828;stroke-linecap:round;stroke-linejoin:round"
         d="m 8.8707796,7.2161302 c 0,0 0.1150421,1.3493808 -0.8628925,1.9911109 C 7.5871392,9.481642 7.2132202,9.6202816 6.2520287,9.5254945 6.200032,9.6922063 6.1993917,9.7514871 6.1993917,9.7514871 c 0,0 -0.6655123,-0.095585 -1.108312,-0.8068825 0.073085,-0.029037 0.5258647,-0.3555992 1.3617742,-0.2595173 -0.038668,0.09465 -0.051569,0.2457321 -0.051569,0.2457321 0,0 1.0107667,0.3257946 1.810631,-0.3567372 C 8.3783374,8.4217163 8.8125788,7.8660381 8.8707843,7.2161313 Z"
         id="path5391"
         sodipodi:nodetypes="ccccccccc" /><path
         style="fill:#8fde94;fill-opacity:1;stroke:none;stroke-width:0.492828;stroke-linecap:round;stroke-linejoin:round"
         d="m 4.17214,8.472244 c 0,0 -1.2313448,-0.5637847 -1.308846,-1.730904 C 2.8314288,6.2400326 2.8947108,5.8462921 3.4501672,5.0561386 3.3306159,4.9288439 3.2793222,4.8991187 3.2793222,4.8991187 c 0,0 0.4106671,-0.5323493 1.2477779,-0.56786 -0.01068,0.077913 0.050835,0.6327719 -0.4441056,1.3132206 -0.063375,-0.080234 -0.1885554,-0.1658027 -0.1885554,-0.1658027 0,0 -0.7809584,0.7196495 -0.5803199,1.7518205 0.050762,0.2198515 0.3208622,0.8713034 0.8580175,1.2417504 z"
         id="path5397"
         sodipodi:nodetypes="ccccccccc" /><path
         style="fill:#8fde94;fill-opacity:1;stroke:none;stroke-width:0.492828;stroke-linecap:round;stroke-linejoin:round"
         d="m 5.4429553,3.7372787 c 0,0 1.1419294,-0.7280524 2.1641739,-0.1595544 0.4383071,0.24538 0.7346256,0.5122725 1.096677,1.4077016 0.1718052,-0.031294 0.2246133,-0.05824 0.2246133,-0.05824 0,0 0.2241411,0.63388 -0.2004703,1.3561807 C 8.6683135,6.2320994 8.1689373,5.9825501 7.8661666,5.197498 7.9679526,5.187828 8.1077711,5.129154 8.1077711,5.129154 c 0,0 -0.1804243,-1.0465363 -1.1561828,-1.4383629 C 6.7393956,3.6140743 6.0456648,3.4872616 5.4429542,3.7372745 Z"
         id="path5399"
         sodipodi:nodetypes="ccccccccc"
         inkscape:label="path5399" /></g></g></svg>
